<?xml version="1.0" encoding="UTF-8" standalone="no"?>
<!-- Created with Inkscape (http://www.inkscape.org/) -->

<svg
   xmlns:dc="http://purl.org/dc/elements/1.1/"
   xmlns:cc="http://creativecommons.org/ns#"
   xmlns:rdf="http://www.w3.org/1999/02/22-rdf-syntax-ns#"
   xmlns:svg="http://www.w3.org/2000/svg"
   xmlns="http://www.w3.org/2000/svg"
   version="1.1"
   width="715.74799"
   height="375.94489"
   id="svg6640">
  <defs
     id="defs6642">
    <clipPath
       id="clipPath5201">
      <path
         d="m 0,0 595.276,0 0,595.276 L 0,595.276 0,0 z"
         id="path5203" />
    </clipPath>
  </defs>
  <metadata
     id="metadata6645">
    <rdf:RDF>
      <cc:Work
         rdf:about="">
        <dc:format>image/svg+xml</dc:format>
        <dc:type
           rdf:resource="http://purl.org/dc/dcmitype/StillImage" />
        <dc:title></dc:title>
      </cc:Work>
    </rdf:RDF>
  </metadata>
  <g
     transform="translate(-17.917763,-365.88176)"
     id="layer1">
    <g
       transform="matrix(5.7074399,0,0,5.7074399,-1108.1426,-2533.4918)"
       id="g6709">
      <g
         transform="matrix(1.25,0,0,-1.25,292.87625,519.94232)"
         id="g5177"
         style="fill:#0b3e95;fill-opacity:1">
        <path
           d="m 0,0 c 0.191,-0.866 0.267,-1.777 0.227,-2.728 l -8.391,-2.313 c -0.008,0.432 -0.051,0.853 -0.125,1.262 L 0,0 z m -3.074,5.093 c 0.762,-0.664 1.393,-1.4 1.893,-2.198 L -9.504,-0.9 c -0.277,0.387 -0.598,0.753 -0.961,1.096 l 7.391,4.897 z m -6.07,3.039 C -8.007,7.824 -6.971,7.445 -6.04,7.003 l -7.406,-4.908 c -0.446,0.191 -0.921,0.364 -1.423,0.518 l 5.725,5.519 z m -8.777,0.92 c 1.513,0.038 2.98,-0.008 4.387,-0.143 l -5.712,-5.506 c -0.699,0.053 -1.416,0.08 -2.149,0.079 l 3.474,5.57 z M -28.519,7.607 c 1.75,0.412 3.483,0.74 5.181,0.981 l -3.456,-5.543 c -0.864,-0.132 -1.739,-0.294 -2.621,-0.484 l 0.896,5.046 z m -10.97,-3.568 c 1.681,0.697 3.376,1.33 5.072,1.893 l -0.89,-5.014 C -36.133,0.636 -36.958,0.333 -37.78,0.01 l -1.709,4.029 z M -50.024,-1.32 c 1.545,0.947 3.135,1.84 4.757,2.677 l 1.694,-3.996 c -0.807,-0.424 -1.603,-0.865 -2.386,-1.324 l -4.065,2.643 z m 23.275,-24.682 c 0.79,0.411 1.569,0.84 2.336,1.285 l 3.965,-2.578 c -1.523,-0.899 -3.087,-1.746 -4.677,-2.537 l -1.624,3.83 z m -8.371,-3.567 c 0.858,0.289 1.716,0.601 2.571,0.935 l 1.61,-3.797 c -1.662,-0.662 -3.336,-1.26 -5.007,-1.79 l 0.826,4.652 z m -8.144,-2.023 c 0.745,0.117 1.498,0.254 2.257,0.414 l -0.82,-4.622 c -1.544,-0.338 -3.07,-0.611 -4.569,-0.814 l 3.132,5.022 z m -7.489,-0.389 c 0.677,-0.046 1.371,-0.069 2.078,-0.065 l -3.114,-4.996 c -1.399,-0.024 -2.755,0.023 -4.061,0.147 l 5.097,4.914 z m -6.161,1.402 c 0.542,-0.241 1.126,-0.457 1.753,-0.642 l -5.085,-4.901 c -1.193,0.32 -2.273,0.72 -3.241,1.188 l 6.573,4.355 z m -3.758,2.916 c 0.245,-0.342 0.524,-0.668 0.836,-0.976 l -6.589,-4.367 c -0.669,0.595 -1.235,1.247 -1.696,1.947 l 7.449,3.396 z m -1.341,4.393 c -0.004,-0.521 0.038,-1.027 0.126,-1.514 l -7.483,-3.411 c -0.219,0.892 -0.313,1.834 -0.281,2.819 l 7.638,2.106 z"
           id="path5179"
           style="fill:#0b3e95;fill-opacity:1;fill-rule:nonzero;stroke:none" />
      </g>
      <g
         transform="matrix(1.25,0,0,-1.25,208.2015,546.48357)"
         id="g5181"
         style="fill:#0b3e95;fill-opacity:1">
        <path
           d="m 0,0 5.767,0 0,14.415 -5.767,0 0,-4.872 -2.46,0 0,4.872 -5.767,0 0,-14.415 5.767,0 0,5.31 L 0,5.31 0,0 z"
           id="path5183"
           style="fill:#0b3e95;fill-opacity:1;fill-rule:nonzero;stroke:none" />
      </g>
      <g
         transform="matrix(1.25,0,0,-1.25,228.62638,546.48357)"
         id="g5185"
         style="fill:#0b3e95;fill-opacity:1">
        <path
           d="m 0,0 5.767,0 0,10.204 3.928,0 0,4.211 -13.622,0 0,-4.211 3.927,0 L 0,0 z"
           id="path5187"
           style="fill:#0b3e95;fill-opacity:1;fill-rule:nonzero;stroke:none" />
      </g>
      <g
         transform="matrix(1.25,0,0,-1.25,251.3215,546.48357)"
         id="g5189"
         style="fill:#0b3e95;fill-opacity:1">
        <path
           d="m 0,0 6.252,0 1.351,9.344 0.04,0 L 8.994,0 l 6.251,0 3.146,14.415 -5.162,0 -1.23,-9.065 -0.041,0 -1.351,9.065 -5.969,0 -1.351,-9.065 -0.04,0 -1.23,9.065 -5.163,0 L 0,0 z"
           id="path5191"
           style="fill:#0b3e95;fill-opacity:1;fill-rule:nonzero;stroke:none" />
      </g>
      <g
         transform="matrix(1.25,0,0,-1.25,282.51525,546.48357)"
         id="g5193"
         style="fill:#0b3e95;fill-opacity:1">
        <path
           d="m 0,0 5.647,0 0,6.469 0.04,0 L 9.034,0 l 6.253,0 -4.437,7.626 3.891,6.789 -6.09,0 -2.964,-6.189 -0.04,0 0,6.189 L 0,14.415 0,0 z"
           id="path5195"
           style="fill:#0b3e95;fill-opacity:1;fill-rule:nonzero;stroke:none" />
      </g>
      <g
         transform="matrix(1.25,0,0,-1.25,-389.39275,1216.7268)"
         id="g5197"
         style="fill:#0b3e95;fill-opacity:1">
        <g
           clip-path="url(#clipPath5201)"
           id="g5199"
           style="fill:#0b3e95;fill-opacity:1">
          <g
             transform="translate(534.2527,519.2351)"
             id="g5205"
             style="fill:#0b3e95;fill-opacity:1">
            <path
               d="m 0,0 c 0.186,0 0.266,-0.04 0.266,-0.147 0,-0.026 0,-0.026 -0.026,-0.159 L 0,-1.41 c -0.053,-0.201 -0.093,-0.241 -0.306,-0.241 l -4.406,0 c -0.253,0 -0.28,0.027 -0.28,0.28 l 0,8.572 c 0,0.254 0.027,0.279 0.28,0.279 l 1.264,0 c 0.24,0 0.28,-0.039 0.28,-0.279 L -3.168,0 0,0 z"
               id="path5207"
               style="fill:#0b3e95;fill-opacity:1;fill-rule:nonzero;stroke:none" />
          </g>
          <g
             transform="translate(536.795,520.4193)"
             id="g5209"
             style="fill:#0b3e95;fill-opacity:1">
            <path
               d="m 0,0 c 0.027,-1.145 0.493,-1.678 1.477,-1.678 0.492,0 1.012,0.148 1.518,0.414 0.067,0.04 0.133,0.053 0.172,0.053 0.067,0 0.107,-0.04 0.147,-0.12 l 0.333,-0.798 c 0.04,-0.08 0.04,-0.093 0.04,-0.146 0,-0.147 -0.106,-0.226 -0.546,-0.413 -0.585,-0.253 -1.185,-0.373 -1.837,-0.373 -0.851,0 -1.517,0.213 -1.983,0.652 -0.639,0.573 -0.999,1.597 -0.999,2.809 0,2.143 1.159,3.567 2.916,3.567 1.757,0 2.635,-1.211 2.635,-3.634 C 3.873,0.067 3.82,0 3.581,0 L 0,0 z M 2.103,1.238 C 2.076,2.343 1.81,2.756 1.131,2.756 0.453,2.756 0.146,2.33 0.027,1.238 l 2.076,0 z"
               id="path5211"
               style="fill:#0b3e95;fill-opacity:1;fill-rule:nonzero;stroke:none" />
          </g>
          <g
             transform="translate(541.7203,522.9224)"
             id="g5213"
             style="fill:#0b3e95;fill-opacity:1">
            <path
               d="m 0,0 c -0.2,0 -0.227,0.027 -0.227,0.226 l 0,0.786 c 0,0.199 0.027,0.226 0.227,0.226 l 2.475,0 c 0.2,0 0.227,-0.027 0.227,-0.226 l 0,-6.124 c 0,-0.199 -0.027,-0.226 -0.227,-0.226 l -1.238,0 c -0.199,0 -0.226,0.027 -0.226,0.226 L 1.011,0 0,0 z m 2.888,3.194 c 0,-0.599 -0.479,-1.078 -1.078,-1.078 -0.599,0 -1.079,0.479 -1.079,1.091 0,0.586 0.493,1.065 1.092,1.065 0.586,0 1.065,-0.492 1.065,-1.078"
               id="path5215"
               style="fill:#0b3e95;fill-opacity:1;fill-rule:nonzero;stroke:none" />
          </g>
          <g
             transform="translate(547.5363,524.3467)"
             id="g5217"
             style="fill:#0b3e95;fill-opacity:1">
            <path
               d="m 0,0 c 0.054,0.026 0.093,0.039 0.12,0.039 0.119,0 0.267,-0.279 0.373,-0.692 0.546,0.493 1.038,0.692 1.691,0.692 1.503,0 2.302,-1.198 2.302,-3.407 0,-2.409 -0.812,-3.621 -2.436,-3.621 -0.532,0 -0.892,0.093 -1.358,0.347 l 0,-2.409 c 0,-0.187 -0.013,-0.214 -0.199,-0.24 L -0.745,-9.557 -0.878,-9.57 c -0.094,0 -0.121,0.053 -0.121,0.212 l 0,7.322 c 0,0.518 -0.066,0.824 -0.265,1.317 -0.013,0.04 -0.026,0.079 -0.026,0.106 0,0.053 0.026,0.08 0.132,0.12 L 0,0 z m 0.692,-5.457 c 0.347,-0.187 0.572,-0.253 0.932,-0.253 0.865,0 1.172,0.585 1.172,2.289 0,1.464 -0.334,2.116 -1.065,2.116 -0.373,0 -0.653,-0.133 -1.039,-0.479 l 0,-3.673 z"
               id="path5219"
               style="fill:#0b3e95;fill-opacity:1;fill-rule:nonzero;stroke:none" />
          </g>
          <g
             transform="translate(556.029,522.8284)"
             id="g5221"
             style="fill:#0b3e95;fill-opacity:1">
            <path
               d="m 0,0 -2.596,0 c -0.199,0 -0.226,0.027 -0.226,0.226 l 0,0.88 c 0,0.199 0.027,0.226 0.226,0.226 l 4.193,0 c 0.187,0 0.227,-0.041 0.227,-0.226 l 0,-0.972 -3.008,-3.981 3.047,0 c 0.147,0 0.214,-0.04 0.214,-0.133 0,-0.04 -0.014,-0.079 -0.04,-0.146 l -0.4,-0.945 C 1.584,-5.204 1.531,-5.244 1.384,-5.244 l -4.259,0 c -0.201,0 -0.227,0.027 -0.227,0.226 l 0,0.919 L 0,0 z"
               id="path5223"
               style="fill:#0b3e95;fill-opacity:1;fill-rule:nonzero;stroke:none" />
          </g>
          <g
             transform="translate(559.1699,522.9224)"
             id="g5225"
             style="fill:#0b3e95;fill-opacity:1">
            <path
               d="m 0,0 c -0.199,0 -0.226,0.027 -0.226,0.226 l 0,0.786 c 0,0.199 0.027,0.226 0.226,0.226 l 2.476,0 c 0.2,0 0.226,-0.027 0.226,-0.226 l 0,-6.124 c 0,-0.199 -0.026,-0.226 -0.226,-0.226 l -1.238,0 c -0.199,0 -0.226,0.027 -0.226,0.226 L 1.012,0 0,0 z m 2.888,3.194 c 0,-0.599 -0.478,-1.078 -1.077,-1.078 -0.6,0 -1.079,0.479 -1.079,1.091 0,0.586 0.493,1.065 1.092,1.065 0.586,0 1.064,-0.492 1.064,-1.078"
               id="path5227"
               style="fill:#0b3e95;fill-opacity:1;fill-rule:nonzero;stroke:none" />
          </g>
          <g
             transform="translate(563.975,516.5866)"
             id="g5229"
             style="fill:#0b3e95;fill-opacity:1">
            <path
               d="m 0,0 c 0.027,0.079 0.08,0.132 0.147,0.132 0.026,0 0.08,-0.013 0.119,-0.039 C 0.999,-0.24 1.65,-0.4 2.236,-0.4 c 0.746,0 1.025,0.307 1.025,1.105 0,0.214 -0.027,0.519 -0.066,0.866 C 2.702,1.224 2.223,1.079 1.65,1.079 c -1.344,0 -2.182,1.249 -2.182,3.233 0,2.143 0.944,3.487 2.436,3.487 0.613,0 0.998,-0.159 1.53,-0.612 0.16,0.387 0.36,0.652 0.466,0.652 0.04,0 0.106,-0.013 0.133,-0.026 L 5.085,7.44 c 0.08,-0.039 0.12,-0.08 0.12,-0.133 0,-0.04 0,-0.04 -0.08,-0.24 C 4.912,6.575 4.832,6.162 4.832,5.563 l 0,-1.97 c 0,-0.718 0.013,-1.45 0.04,-2.169 0.013,-0.359 0.026,-0.666 0.026,-0.838 0,-1.518 -0.892,-2.369 -2.502,-2.369 -1.131,0 -2.702,0.426 -2.702,0.731 0,0.027 0.013,0.093 0.027,0.133 L 0,0 z M 3.195,6.016 C 2.822,6.296 2.57,6.402 2.25,6.402 1.544,6.402 1.158,5.683 1.158,4.379 c 0,-1.278 0.346,-1.957 0.985,-1.957 0.414,0 0.759,0.146 1.052,0.453 l 0,3.141 z"
               id="path5231"
               style="fill:#0b3e95;fill-opacity:1;fill-rule:nonzero;stroke:none" />
          </g>
        </g>
      </g>
    </g>
  </g>
</svg>
